# xmcd
#
# Track frame offsets:
#	150
#	21442
#	36216
#	52802
#	67623
#	84432
#	102501
#	120008
#	135944
#	152231
#	170945
#	186349
#	200909
#
# Disc length: 2919 seconds
#
# Revision: 0
# Processed by: cddbd v1.5.2PL0 Copyright (c) Steve Scherf et al.
# Submitted via: EZCDAudioConverter 2.0.7.1
#
DISCID=aa0b650d
DTITLE=Bourbon Boys - Hail To The Chief
DYEAR=2013
DGENRE=Country Rock
TTITLE0=Hail To The Chief
TTITLE1=4x4
TTITLE2=Remington Magnum Express
TTITLE3=Son Of The North
TTITLE4=Taxman
TTITLE5=Don't Tread On Me
TTITLE6=Broken Badboy Blues
TTITLE7=Proud To Be A Redneck
TTITLE8=To Hell And Back
TTITLE9=Wolverine
TTITLE10=The Viper
TTITLE11=Dust And Dieselsmoke
TTITLE12=Keep Driving
EXTD=
EXTT0=
EXTT1=
EXTT2=
EXTT3=
EXTT4=
EXTT5=
EXTT6=
EXTT7=
EXTT8=
EXTT9=
EXTT10=
EXTT11=
EXTT12=
PLAYORDER=
